<svg width="16" height="16" viewBox="0 0 16 16" fill="none" xmlns="http://www.w3.org/2000/svg">
<path d="M14.25 0.125H1.75C1.41848 0.125 1.10054 0.256696 0.866116 0.491116C0.631696 0.725537 0.5 1.04348 0.5 1.375V5.96641C0.5 12.9672 6.42344 15.2898 7.60938 15.6844C7.86267 15.7705 8.13733 15.7705 8.39062 15.6844C9.57812 15.2898 15.5 12.9672 15.5 5.96641V1.375C15.5 1.04348 15.3683 0.725537 15.1339 0.491116C14.8995 0.256696 14.5815 0.125 14.25 0.125ZM11.5672 5.56719L7.19219 9.94219C7.13414 10.0003 7.06521 10.0464 6.98934 10.0778C6.91346 10.1093 6.83213 10.1255 6.75 10.1255C6.66787 10.1255 6.58654 10.1093 6.51066 10.0778C6.43479 10.0464 6.36586 10.0003 6.30781 9.94219L4.43281 8.06719C4.31554 7.94991 4.24965 7.79085 4.24965 7.625C4.24965 7.45915 4.31554 7.30009 4.43281 7.18281C4.55009 7.06554 4.70915 6.99965 4.875 6.99965C5.04085 6.99965 5.19991 7.06554 5.31719 7.18281L6.75 8.61562L10.6828 4.68281C10.7409 4.62474 10.8098 4.57868 10.8857 4.54725C10.9616 4.51583 11.0429 4.49965 11.125 4.49965C11.2071 4.49965 11.2884 4.51583 11.3643 4.54725C11.4402 4.57868 11.5091 4.62474 11.5672 4.68281C11.6253 4.74088 11.6713 4.80982 11.7027 4.88569C11.7342 4.96156 11.7503 5.04288 11.7503 5.125C11.7503 5.20712 11.7342 5.28844 11.7027 5.36431C11.6713 5.44018 11.6253 5.50912 11.5672 5.56719Z" fill="#6EE7B7"/>
</svg>
